<?xml version="1.0" encoding="UTF-8" standalone="no"?>
<!DOCTYPE svg PUBLIC "-//W3C//DTD SVG 1.1//EN" "http://www.w3.org/Graphics/SVG/1.1/DTD/svg11.dtd">
<svg width="100%" height="100%" viewBox="0 0 22504 12234" version="1.1" xmlns="http://www.w3.org/2000/svg" xmlns:xlink="http://www.w3.org/1999/xlink" xml:space="preserve" xmlns:serif="http://www.serif.com/" style="fill-rule:evenodd;clip-rule:evenodd;stroke-linecap:square;stroke-linejoin:round;stroke-miterlimit:1.5;">
    <g transform="matrix(1,0,0,1,-23411.8,-23411)">
        <g transform="matrix(0.00262722,5.30385,-5.3033,0.00262694,85152.9,17446.2)">
            <path d="M2108.64,10652.9L3386.07,10092.5L3386.06,11603.3L3058.6,11603.3L2108.64,10652.9Z" style="fill:rgb(247,52,41);stroke:rgb(247,52,41);stroke-width:78.56px;"/>
            <path d="M2743.68,11603.3L1159.32,11603.3L1159.32,10019L2743.68,11603.3Z" style="fill:rgb(152,191,14);stroke:rgb(152,191,14);stroke-width:78.56px;"/>
            <path d="M1939.41,10484L3386.13,9849.24L3386.06,9376.59L1159.25,9376.22L1159.32,9704.07L1939.41,10484Z" style="fill:rgb(0,131,202);stroke:rgb(0,131,202);stroke-width:78.56px;"/>
        </g>
        <g transform="matrix(1.26182,0,0,1.21468,-47940.9,-40748.1)">
            <g transform="matrix(1,0,0,1,28050.8,-1488.55)">
                <g transform="matrix(4541.67,0,0,4541.67,38599,57585.1)">
                    <path d="M0.215,-0.708C0.117,-0.708 0.065,-0.645 0.065,-0.544L0.065,-0.034C0.065,-0.013 0.082,0.004 0.103,0.004C0.124,0.004 0.141,-0.013 0.141,-0.034L0.141,-0.25L0.289,-0.25L0.289,-0.034C0.289,-0.013 0.306,0.004 0.327,0.004C0.348,0.004 0.365,-0.013 0.365,-0.034L0.365,-0.544C0.365,-0.645 0.313,-0.708 0.215,-0.708ZM0.141,-0.32L0.141,-0.531C0.141,-0.606 0.167,-0.636 0.215,-0.636C0.263,-0.636 0.289,-0.606 0.289,-0.531L0.289,-0.32L0.141,-0.32Z" style="fill:rgb(13,13,13);fill-rule:nonzero;"/>
                </g>
                <g transform="matrix(4541.67,0,0,4541.67,40551.9,57585.1)">
                    <path d="M0.356,-0.464L0.356,-0.511C0.356,-0.632 0.298,-0.698 0.198,-0.698L0.131,-0.698C0.088,-0.698 0.07,-0.68 0.07,-0.638L0.07,-0.034C0.07,-0.013 0.087,0.004 0.108,0.004C0.129,0.004 0.146,-0.013 0.146,-0.034L0.146,-0.277L0.199,-0.277C0.248,-0.277 0.278,-0.233 0.278,-0.176L0.278,-0.034C0.278,-0.013 0.295,0.004 0.316,0.004C0.337,0.004 0.354,-0.013 0.354,-0.034L0.354,-0.197C0.354,-0.256 0.325,-0.297 0.297,-0.313C0.338,-0.344 0.356,-0.395 0.356,-0.464ZM0.191,-0.347L0.146,-0.347L0.146,-0.628L0.191,-0.628C0.255,-0.628 0.282,-0.585 0.282,-0.495L0.282,-0.48C0.282,-0.39 0.255,-0.347 0.191,-0.347Z" style="fill:rgb(13,13,13);fill-rule:nonzero;"/>
                </g>
                <g transform="matrix(4541.67,0,0,4541.67,42414,57585.1)">
                    <path d="M0.179,0.004C0.2,0.004 0.217,-0.013 0.217,-0.034L0.217,-0.628L0.303,-0.628C0.323,-0.628 0.34,-0.643 0.34,-0.663C0.34,-0.683 0.323,-0.698 0.303,-0.698L0.055,-0.698C0.035,-0.698 0.018,-0.683 0.018,-0.663C0.018,-0.643 0.035,-0.628 0.055,-0.628L0.141,-0.628L0.141,-0.034C0.141,-0.013 0.158,0.004 0.179,0.004Z" style="fill:rgb(13,13,13);fill-rule:nonzero;"/>
                </g>
            </g>
        </g>
        <g transform="matrix(1.26182,0,0,1.21468,-47940.9,-40748.1)">
            <g transform="matrix(-8.90325e-05,-0.623952,0.611069,-8.71942e-05,35865.4,80951.5)">
                <g transform="matrix(4526.63,0,0,4526.63,39864.9,62990.9)">
                    <path d="M0.184,-0.555C0.094,-0.555 0.052,-0.504 0.052,-0.434L0.052,-0.424C0.052,-0.403 0.067,-0.387 0.086,-0.387C0.11,-0.387 0.121,-0.402 0.121,-0.421L0.121,-0.422C0.121,-0.461 0.138,-0.486 0.184,-0.486C0.23,-0.486 0.252,-0.455 0.252,-0.386L0.252,-0.341C0.233,-0.362 0.211,-0.372 0.174,-0.372C0.095,-0.372 0.048,-0.323 0.048,-0.223L0.048,-0.139C0.048,-0.039 0.095,0.01 0.174,0.01C0.212,0.01 0.234,-0.001 0.254,-0.023C0.26,-0.008 0.272,0.002 0.289,0.002C0.309,0.002 0.326,-0.015 0.326,-0.035L0.326,-0.398C0.326,-0.498 0.274,-0.555 0.184,-0.555ZM0.182,-0.059C0.139,-0.059 0.122,-0.085 0.122,-0.154L0.122,-0.208C0.122,-0.277 0.139,-0.303 0.182,-0.303C0.22,-0.303 0.252,-0.268 0.252,-0.203L0.252,-0.159C0.252,-0.094 0.22,-0.059 0.182,-0.059Z" style="fill:rgb(13,13,13);fill-rule:nonzero;"/>
                </g>
                <g transform="matrix(4526.63,0,0,4526.63,41589.6,62990.9)">
                    <path d="M0.092,0.002C0.112,0.002 0.129,-0.015 0.129,-0.035L0.129,-0.388C0.129,-0.457 0.151,-0.488 0.197,-0.488C0.243,-0.488 0.265,-0.457 0.265,-0.388L0.265,-0.035C0.265,-0.015 0.282,0.002 0.302,0.002C0.322,0.002 0.339,-0.015 0.339,-0.035L0.339,-0.4C0.339,-0.5 0.287,-0.557 0.197,-0.557C0.107,-0.557 0.055,-0.5 0.055,-0.4L0.055,-0.035C0.055,-0.015 0.072,0.002 0.092,0.002Z" style="fill:rgb(13,13,13);fill-rule:nonzero;"/>
                </g>
                <g transform="matrix(4526.63,0,0,4526.63,43373.1,62990.9)">
                    <path d="M0.303,-0.738C0.283,-0.738 0.266,-0.721 0.266,-0.701L0.266,-0.537C0.246,-0.549 0.221,-0.557 0.196,-0.557C0.104,-0.557 0.052,-0.5 0.052,-0.4L0.052,-0.147C0.052,-0.047 0.104,0.01 0.196,0.01C0.288,0.01 0.34,-0.047 0.34,-0.147L0.34,-0.701C0.34,-0.721 0.323,-0.738 0.303,-0.738ZM0.266,-0.159C0.266,-0.09 0.244,-0.059 0.196,-0.059C0.148,-0.059 0.126,-0.09 0.126,-0.159L0.126,-0.388C0.126,-0.457 0.148,-0.488 0.196,-0.488C0.234,-0.488 0.266,-0.453 0.266,-0.388L0.266,-0.159Z" style="fill:rgb(13,13,13);fill-rule:nonzero;"/>
                </g>
            </g>
        </g>
        <g transform="matrix(1.26182,0,0,1.21468,-47940.9,-40748.1)">
            <g transform="matrix(0.96445,0,0,0.96445,24117.4,9797.49)">
                <g transform="matrix(5210.22,0,0,5210.22,44312.7,51905.7)">
                    <path d="M0.179,0.004C0.2,0.004 0.217,-0.013 0.217,-0.034L0.217,-0.628L0.303,-0.628C0.323,-0.628 0.34,-0.643 0.34,-0.663C0.34,-0.683 0.323,-0.698 0.303,-0.698L0.055,-0.698C0.035,-0.698 0.018,-0.683 0.018,-0.663C0.018,-0.643 0.035,-0.628 0.055,-0.628L0.141,-0.628L0.141,-0.034C0.141,-0.013 0.158,0.004 0.179,0.004Z" style="fill:rgb(13,13,13);fill-rule:nonzero;"/>
                </g>
                <g transform="matrix(5210.22,0,0,5210.22,46177.9,51905.7)">
                    <path d="M0.285,-0.068L0.146,-0.068L0.146,-0.348L0.27,-0.348C0.29,-0.348 0.307,-0.363 0.307,-0.383C0.307,-0.403 0.29,-0.418 0.27,-0.418L0.146,-0.418L0.146,-0.628L0.285,-0.628C0.305,-0.628 0.322,-0.643 0.322,-0.663C0.322,-0.683 0.305,-0.698 0.285,-0.698L0.131,-0.698C0.088,-0.698 0.07,-0.68 0.07,-0.638L0.07,-0.058C0.07,-0.016 0.088,0.002 0.131,0.002L0.285,0.002C0.305,0.002 0.322,-0.013 0.322,-0.033C0.322,-0.053 0.305,-0.068 0.285,-0.068Z" style="fill:rgb(13,13,13);fill-rule:nonzero;"/>
                </g>
                <g transform="matrix(5210.22,0,0,5210.22,48090.1,51905.7)">
                    <path d="M0.208,0.01C0.303,0.01 0.352,-0.053 0.352,-0.154L0.352,-0.168C0.352,-0.194 0.336,-0.209 0.315,-0.209C0.294,-0.209 0.278,-0.194 0.278,-0.168L0.278,-0.164C0.278,-0.092 0.256,-0.062 0.21,-0.062C0.164,-0.062 0.139,-0.093 0.139,-0.167L0.139,-0.525C0.139,-0.6 0.162,-0.63 0.209,-0.63C0.255,-0.63 0.278,-0.6 0.278,-0.525L0.278,-0.522C0.278,-0.497 0.295,-0.483 0.315,-0.483C0.335,-0.483 0.352,-0.497 0.352,-0.52L0.352,-0.538C0.352,-0.639 0.303,-0.702 0.208,-0.702C0.115,-0.702 0.063,-0.639 0.063,-0.538L0.063,-0.154C0.063,-0.053 0.115,0.01 0.208,0.01Z" style="fill:rgb(13,13,13);fill-rule:nonzero;"/>
                </g>
                <g transform="matrix(5210.22,0,0,5210.22,50174.2,51905.7)">
                    <path d="M0.332,-0.702C0.311,-0.702 0.294,-0.685 0.294,-0.664L0.294,-0.409L0.146,-0.409L0.146,-0.664C0.146,-0.685 0.129,-0.702 0.108,-0.702C0.087,-0.702 0.07,-0.685 0.07,-0.664L0.07,-0.034C0.07,-0.013 0.087,0.004 0.108,0.004C0.129,0.004 0.146,-0.013 0.146,-0.034L0.146,-0.339L0.294,-0.339L0.294,-0.034C0.294,-0.013 0.311,0.004 0.332,0.004C0.353,0.004 0.37,-0.013 0.37,-0.034L0.37,-0.664C0.37,-0.685 0.353,-0.702 0.332,-0.702Z" style="fill:rgb(13,13,13);fill-rule:nonzero;"/>
                </g>
            </g>
        </g>
        <g transform="matrix(1.26182,0,0,1.21468,-47940.9,-40748.1)">
            <g transform="matrix(0.813449,0,0,0.813449,16987.1,19618.2)">
                <g transform="matrix(4526.63,0,0,4526.63,61180,52316.2)">
                    <path d="M0.105,0.018C0.137,0.018 0.162,-0.007 0.162,-0.039C0.162,-0.071 0.137,-0.096 0.105,-0.096C0.073,-0.096 0.048,-0.071 0.048,-0.039C0.048,-0.007 0.073,0.018 0.105,0.018Z" style="fill:rgb(13,13,13);fill-rule:nonzero;"/>
                </g>
                <g transform="matrix(4526.63,0,0,4526.63,62130.6,52316.2)">
                    <path d="M0.176,0.009C0.27,0.009 0.326,-0.05 0.325,-0.158C0.324,-0.251 0.292,-0.301 0.211,-0.344L0.166,-0.368C0.133,-0.385 0.121,-0.405 0.121,-0.435C0.121,-0.467 0.138,-0.489 0.179,-0.489C0.223,-0.489 0.24,-0.464 0.24,-0.424L0.24,-0.423C0.24,-0.404 0.253,-0.389 0.274,-0.389C0.296,-0.389 0.309,-0.404 0.309,-0.425L0.309,-0.436C0.309,-0.506 0.267,-0.557 0.179,-0.557C0.087,-0.557 0.047,-0.497 0.047,-0.432C0.047,-0.376 0.069,-0.335 0.127,-0.305L0.162,-0.286C0.231,-0.249 0.25,-0.221 0.25,-0.15C0.25,-0.096 0.23,-0.059 0.178,-0.059C0.127,-0.059 0.107,-0.09 0.107,-0.131C0.107,-0.138 0.108,-0.15 0.111,-0.162C0.117,-0.183 0.11,-0.204 0.089,-0.209C0.067,-0.214 0.047,-0.204 0.04,-0.177C0.034,-0.157 0.033,-0.141 0.033,-0.125C0.033,-0.051 0.082,0.009 0.176,0.009Z" style="fill:rgb(13,13,13);fill-rule:nonzero;"/>
                </g>
                <g transform="matrix(4526.63,0,0,4526.63,63751.1,52316.2)">
                    <path d="M0.199,-0.557C0.107,-0.557 0.055,-0.5 0.055,-0.4L0.055,0.152C0.055,0.172 0.072,0.189 0.092,0.189C0.112,0.189 0.129,0.172 0.129,0.152L0.129,-0.009C0.149,0.003 0.174,0.011 0.199,0.011C0.291,0.011 0.343,-0.046 0.343,-0.146L0.343,-0.4C0.343,-0.5 0.291,-0.557 0.199,-0.557ZM0.269,-0.158C0.269,-0.089 0.247,-0.058 0.199,-0.058C0.161,-0.058 0.129,-0.093 0.129,-0.158L0.129,-0.388C0.129,-0.457 0.151,-0.488 0.199,-0.488C0.247,-0.488 0.269,-0.457 0.269,-0.388L0.269,-0.158Z" style="fill:rgb(13,13,13);fill-rule:nonzero;"/>
                </g>
                <g transform="matrix(4526.63,0,0,4526.63,65539.1,52316.2)">
                    <path d="M0.184,-0.555C0.094,-0.555 0.052,-0.504 0.052,-0.434L0.052,-0.424C0.052,-0.403 0.067,-0.387 0.086,-0.387C0.11,-0.387 0.121,-0.402 0.121,-0.421L0.121,-0.422C0.121,-0.461 0.138,-0.486 0.184,-0.486C0.23,-0.486 0.252,-0.455 0.252,-0.386L0.252,-0.341C0.233,-0.362 0.211,-0.372 0.174,-0.372C0.095,-0.372 0.048,-0.323 0.048,-0.223L0.048,-0.139C0.048,-0.039 0.095,0.01 0.174,0.01C0.212,0.01 0.234,-0.001 0.254,-0.023C0.26,-0.008 0.272,0.002 0.289,0.002C0.309,0.002 0.326,-0.015 0.326,-0.035L0.326,-0.398C0.326,-0.498 0.274,-0.555 0.184,-0.555ZM0.182,-0.059C0.139,-0.059 0.122,-0.085 0.122,-0.154L0.122,-0.208C0.122,-0.277 0.139,-0.303 0.182,-0.303C0.22,-0.303 0.252,-0.268 0.252,-0.203L0.252,-0.159C0.252,-0.094 0.22,-0.059 0.182,-0.059Z" style="fill:rgb(13,13,13);fill-rule:nonzero;"/>
                </g>
                <g transform="matrix(4526.63,0,0,4526.63,67263.8,52316.2)">
                    <path d="M0.194,0.008C0.284,0.008 0.326,-0.043 0.326,-0.113L0.326,-0.126C0.326,-0.145 0.313,-0.161 0.291,-0.161C0.27,-0.161 0.257,-0.145 0.257,-0.125L0.257,-0.124C0.257,-0.086 0.24,-0.061 0.194,-0.061C0.148,-0.061 0.126,-0.092 0.126,-0.161L0.126,-0.385C0.126,-0.454 0.148,-0.485 0.194,-0.485C0.239,-0.485 0.257,-0.461 0.257,-0.422L0.257,-0.421C0.257,-0.402 0.27,-0.387 0.291,-0.387C0.313,-0.387 0.326,-0.402 0.326,-0.423L0.326,-0.433C0.326,-0.503 0.284,-0.554 0.194,-0.554C0.104,-0.554 0.052,-0.497 0.052,-0.397L0.052,-0.149C0.052,-0.049 0.104,0.008 0.194,0.008Z" style="fill:rgb(13,13,13);fill-rule:nonzero;"/>
                </g>
                <g transform="matrix(4526.63,0,0,4526.63,68897.9,52316.2)">
                    <path d="M0.273,-0.204C0.316,-0.204 0.334,-0.223 0.334,-0.265L0.334,-0.398C0.334,-0.498 0.284,-0.555 0.194,-0.555C0.104,-0.555 0.052,-0.498 0.052,-0.398L0.052,-0.148C0.052,-0.048 0.104,0.009 0.196,0.009C0.286,0.009 0.331,-0.047 0.331,-0.122L0.331,-0.131C0.331,-0.154 0.318,-0.169 0.296,-0.169C0.275,-0.169 0.261,-0.154 0.261,-0.131L0.261,-0.129C0.261,-0.09 0.242,-0.06 0.196,-0.06C0.148,-0.06 0.126,-0.091 0.126,-0.16L0.126,-0.204L0.273,-0.204ZM0.194,-0.486C0.24,-0.486 0.262,-0.455 0.262,-0.386L0.262,-0.275L0.126,-0.275L0.126,-0.386C0.126,-0.455 0.148,-0.486 0.194,-0.486Z" style="fill:rgb(13,13,13);fill-rule:nonzero;"/>
                </g>
            </g>
        </g>
    </g>
</svg>
